<?xml version="1.0" standalone="no"?>
<!DOCTYPE svg PUBLIC "-//W3C//DTD SVG 20010904//EN"
 "http://www.w3.org/TR/2001/REC-SVG-20010904/DTD/svg10.dtd">
<svg version="1.0" xmlns="http://www.w3.org/2000/svg"
 width="50.000000pt" height="50.000000pt" viewBox="0 0 50.000000 50.000000"
 preserveAspectRatio="xMidYMid meet">

<g transform="translate(0.000000,50.000000) scale(0.100000,-0.100000)"
fill="#000000" stroke="none">
<path d="M155 456 c-60 -28 -87 -56 -114 -116 -48 -106 -3 -238 100 -291 42
-21 49 -18 49 28 0 30 -3 33 -29 33 -23 0 -34 8 -50 35 -22 38 -15 47 14 15
21 -23 67 -26 84 -6 9 11 5 16 -21 25 -17 6 -40 18 -49 27 -12 11 -30 15 -53
12 -19 -2 -32 0 -30 4 3 4 20 9 37 10 27 1 25 2 -13 8 l-45 7 41 1 c38 2 42 5
49 35 4 17 6 47 5 66 -2 32 -1 33 27 27 27 -7 134 -9 183 -4 21 3 25 -1 26
-27 1 -16 5 -45 9 -62 7 -30 11 -33 49 -35 l41 -1 -50 -7 c-45 -6 -46 -7 -13
-8 20 -1 39 -5 41 -9 3 -5 -15 -6 -39 -4 -26 2 -44 -1 -44 -7 0 -6 -18 -18
-39 -28 -37 -16 -39 -19 -25 -38 8 -11 14 -39 14 -62 0 -22 3 -43 6 -47 9 -9
75 27 101 55 34 36 63 108 63 158 0 52 -35 134 -71 167 -37 34 -110 63 -159
63 -27 0 -65 -10 -95 -24z"/>
</g>
</svg>
