<?xml version="1.0" standalone="no"?>
<!DOCTYPE svg PUBLIC "-//W3C//DTD SVG 20010904//EN"
 "http://www.w3.org/TR/2001/REC-SVG-20010904/DTD/svg10.dtd">
<svg version="1.0" xmlns="http://www.w3.org/2000/svg"
 width="50.000000pt" height="50.000000pt" viewBox="0 0 50.000000 50.000000"
 preserveAspectRatio="xMidYMid meet">

<g transform="translate(0.000000,50.000000) scale(0.100000,-0.100000)"
fill="#000000" stroke="none">
<path d="M354 444 c49 -48 57 -71 52 -157 l-4 -72 19 40 c29 64 44 141 32 168
-13 28 -69 57 -109 57 l-27 0 37 -36z"/>
<path d="M69 444 c-31 -33 -31 -102 0 -201 24 -80 49 -110 78 -94 12 6 25 6
34 0 25 -16 49 -10 49 11 0 17 -3 19 -19 10 -29 -15 -44 -12 -37 6 4 10 -1 25
-10 35 -29 32 -20 203 12 230 25 21 15 29 -34 29 -39 0 -53 -5 -73 -26z"/>
<path d="M234 460 c-27 -11 -64 -57 -64 -81 0 -15 7 -19 32 -17 45 4 66 -37
50 -97 -15 -57 6 -212 31 -227 23 -13 65 13 71 45 15 75 14 127 -4 164 -30 62
-34 88 -15 107 9 9 23 16 31 16 21 0 17 15 -11 49 -33 38 -84 56 -121 41z"/>
<path d="M346 342 c-8 -13 23 -102 35 -102 6 0 9 24 7 52 -2 40 -7 54 -20 56
-9 2 -19 -1 -22 -6z"/>
<path d="M177 333 c-2 -5 -7 -24 -11 -44 -5 -28 -2 -42 15 -62 11 -15 24 -27
28 -27 11 0 31 94 24 118 -5 21 -46 32 -56 15z"/>
<path d="M386 184 c-5 -12 0 -15 21 -12 14 2 28 9 31 16 6 18 -45 15 -52 -4z"/>
</g>
</svg>
