<?xml version="1.0" standalone="no"?>
<!DOCTYPE svg PUBLIC "-//W3C//DTD SVG 20010904//EN"
 "http://www.w3.org/TR/2001/REC-SVG-20010904/DTD/svg10.dtd">
<svg version="1.0" xmlns="http://www.w3.org/2000/svg"
 width="50.000000pt" height="50.000000pt" viewBox="0 0 50.000000 50.000000"
 preserveAspectRatio="xMidYMid meet">

<g transform="translate(0.000000,50.000000) scale(0.100000,-0.100000)"
fill="#000000" stroke="none">
<path d="M185 468 c-32 -17 -45 -39 -45 -74 0 -33 1 -33 53 -37 36 -2 26 -4
-34 -5 -117 -3 -134 -16 -134 -102 0 -53 3 -65 24 -81 14 -11 39 -19 62 -19
39 0 39 0 39 39 0 21 6 43 13 49 7 6 49 12 92 14 l80 3 3 75 c2 41 0 85 -3 97
-10 43 -101 68 -150 41z m31 -49 c10 -17 -13 -36 -27 -22 -12 12 -4 33 11 33
5 0 12 -5 16 -11z"/>
<path d="M350 306 c0 -24 -6 -48 -13 -54 -7 -6 -49 -12 -92 -14 l-80 -3 -3
-70 c-2 -38 0 -80 3 -92 11 -46 98 -68 154 -38 32 16 41 33 41 75 0 28 -2 29
-52 33 -37 2 -27 4 33 5 117 3 134 16 134 102 0 53 -3 65 -24 81 -14 11 -39
19 -62 19 l-39 0 0 -44z m-34 -207 c10 -17 -13 -36 -27 -22 -12 12 -4 33 11
33 5 0 12 -5 16 -11z"/>
</g>
</svg>
