<?xml version="1.0" standalone="no"?>
<!DOCTYPE svg PUBLIC "-//W3C//DTD SVG 20010904//EN"
 "http://www.w3.org/TR/2001/REC-SVG-20010904/DTD/svg10.dtd">
<svg version="1.0" xmlns="http://www.w3.org/2000/svg"
 width="50.000000pt" height="50.000000pt" viewBox="0 0 50.000000 50.000000"
 preserveAspectRatio="xMidYMid meet">

<g transform="translate(0.000000,50.000000) scale(0.100000,-0.100000)"
fill="#000000" stroke="none">
<path d="M200 385 c0 -23 -3 -25 -50 -25 -47 0 -50 -2 -50 -25 0 -20 -5 -25
-25 -25 -20 0 -25 -5 -25 -25 0 -20 -5 -25 -25 -25 -20 0 -25 -5 -25 -24 0
-14 5 -37 10 -52 10 -26 12 -27 70 -21 73 8 82 -9 10 -19 -48 -6 -50 -8 -34
-25 62 -68 262 -36 325 52 24 34 24 37 -3 42 -13 3 6 3 41 0 42 -4 62 -2 58 4
-4 6 -18 8 -32 5 -14 -2 -25 0 -25 6 0 5 13 12 29 15 36 7 61 45 40 58 -8 5
-22 9 -32 9 -10 0 -29 12 -43 28 -24 27 -24 27 -39 7 -9 -11 -15 -33 -13 -50
2 -25 -1 -31 -19 -33 -19 -3 -23 1 -23 22 0 21 -5 26 -25 26 -23 0 -25 3 -25
50 l0 50 -35 0 c-31 0 -35 -3 -35 -25z m50 -10 c0 -8 -7 -15 -15 -15 -8 0 -15
7 -15 15 0 8 7 15 15 15 8 0 15 -7 15 -15z m-100 -50 c0 -8 -7 -15 -15 -15 -8
0 -15 7 -15 15 0 8 7 15 15 15 8 0 15 -7 15 -15z m50 0 c0 -8 -7 -15 -15 -15
-8 0 -15 7 -15 15 0 8 7 15 15 15 8 0 15 -7 15 -15z m50 0 c0 -8 -7 -15 -15
-15 -8 0 -15 7 -15 15 0 8 7 15 15 15 8 0 15 -7 15 -15z m-150 -50 c0 -8 -7
-15 -15 -15 -8 0 -15 7 -15 15 0 8 7 15 15 15 8 0 15 -7 15 -15z m50 0 c0 -8
-7 -15 -15 -15 -8 0 -15 7 -15 15 0 8 7 15 15 15 8 0 15 -7 15 -15z m50 0 c0
-8 -7 -15 -15 -15 -8 0 -15 7 -15 15 0 8 7 15 15 15 8 0 15 -7 15 -15z m50 0
c0 -8 -7 -15 -15 -15 -8 0 -15 7 -15 15 0 8 7 15 15 15 8 0 15 -7 15 -15z m50
0 c0 -8 -7 -15 -15 -15 -8 0 -15 7 -15 15 0 8 7 15 15 15 8 0 15 -7 15 -15z
m-170 -59 c8 -2 -13 -4 -48 -5 -35 0 -61 3 -58 7 4 7 70 6 106 -2z m110 -2 c0
-2 -19 -4 -42 -3 -35 1 -38 2 -18 8 23 7 60 4 60 -5z m90 0 c0 -2 -17 -4 -37
-3 -29 0 -33 2 -18 8 18 7 55 4 55 -5z m-165 -34 c3 -5 1 -10 -4 -10 -6 0 -11
5 -11 10 0 6 2 10 4 10 3 0 8 -4 11 -10z"/>
</g>
</svg>
